<svg width="24" height="24" viewBox="0 0 24 24" fill="none" xmlns="http://www.w3.org/2000/svg">
<g id="Comment Alt Lines">
<path id="comment-alt-lines" d="M18 4H6C4.875 4 4 4.90625 4 6V15C4 16.125 4.875 17 6 17H9V19.625C9 19.875 9.15625 20 9.375 20C9.4375 20 9.5 20 9.59375 19.9375L13.5 17H18C19.0938 17 20 16.125 20 15V6C20 4.90625 19.0938 4 18 4ZM18.5 15C18.5 15.2812 18.25 15.5 18 15.5H13L12.5938 15.8125L10.5 17.375V15.5H6C5.71875 15.5 5.5 15.2812 5.5 15V6C5.5 5.75 5.71875 5.5 6 5.5H18C18.25 5.5 18.5 5.75 18.5 6V15ZM15.5 8.25H8.5C8.21875 8.25 8 8.5 8 8.75V9.25C8 9.53125 8.21875 9.75 8.5 9.75H15.5C15.75 9.75 16 9.53125 16 9.25V8.75C16 8.5 15.75 8.25 15.5 8.25ZM12.5 11.25H8.5C8.21875 11.25 8 11.5 8 11.75V12.25C8 12.5312 8.21875 12.75 8.5 12.75H12.5C12.75 12.75 13 12.5312 13 12.25V11.75C13 11.5 12.75 11.25 12.5 11.25Z" fill="#292929"/>
</g>
</svg>
