<svg width="26" height="17" viewBox="0 0 26 17" fill="none" xmlns="http://www.w3.org/2000/svg">
<g id="Group 2624">
<path id="Vector" d="M25.5 0.25H0.5V16.9168H25.5V0.25Z" fill="white"/>
<path id="Vector_2" d="M8.83315 0.25H0.5V16.9168H8.83315V0.25Z" fill="#007D36"/>
<path id="Vector_3" d="M25.4997 0.25H17.1665V16.9168H25.4997V0.25Z" fill="#D80027"/>
<g id="Group 2098">
<path id="Vector_4" d="M12.9903 11.406C11.4341 11.406 10.1677 10.1398 10.1677 8.5834C10.1677 8.36074 10.3481 8.18018 10.5709 8.18018C10.7938 8.18018 10.9742 8.36074 10.9742 8.5834C10.9742 9.69502 11.8787 10.5995 12.9903 10.5995C14.1019 10.5995 15.0064 9.69502 15.0064 8.5834C15.0064 8.36074 15.1868 8.18018 15.4096 8.18018C15.6325 8.18018 15.8128 8.36074 15.8128 8.5834C15.8128 10.1398 14.5465 11.406 12.9903 11.406Z" fill="#4BA543"/>
<path id="Vector_5" d="M12.1882 6.56726H12.5873C13.2553 6.56726 13.7969 7.10886 13.7969 7.77693V8.9866L13.2332 9.38982C12.6312 9.38982 12.1208 8.94714 12.0356 8.3512L12.1882 6.56726Z" fill="#966A5B"/>
<path id="Vector_6" d="M13.7971 8.9866H13.2334C12.832 8.9866 12.4917 8.69148 12.435 8.29416L12.1883 6.56726H11.8413C11.5963 6.56726 11.4079 6.78401 11.442 7.02668L11.6364 8.40818C11.749 9.19768 12.4357 9.79309 13.2332 9.79309H13.3938C13.6165 9.79309 13.797 9.61257 13.797 9.38987V8.9866H13.7971Z" fill="#785353"/>
</g>
</g>
</svg>
