<svg width="16" height="16" viewBox="0 0 16 16" fill="none" xmlns="http://www.w3.org/2000/svg">
<g id="Icons">
<path id="star-fill" d="M4.18824 10.2077L4.2345 9.94398L4.0407 9.7593L0.518366 6.40266C0.508791 6.39353 0.505124 6.38566 0.503164 6.37739C0.500704 6.367 0.500593 6.3528 0.505014 6.33792C0.509451 6.32298 0.51615 6.3149 0.519001 6.31226C0.519098 6.31217 0.519187 6.31207 0.519277 6.31198C0.519985 6.31126 0.520735 6.31049 0.52596 6.30975L5.42444 5.61388L5.68284 5.57717L5.80046 5.34417L7.98458 1.01763C7.98858 1.00971 7.99194 1.00564 7.99356 1.00388C7.99524 1.00207 7.99631 1.00138 7.99672 1.00114C7.99757 1.00062 7.99909 1 8.00146 1C8.00384 1 8.00536 1.00062 8.00621 1.00114C8.00662 1.00138 8.00769 1.00207 8.00937 1.00388C8.01099 1.00564 8.01435 1.00971 8.01835 1.01763L10.2025 5.34417L10.3201 5.57717L10.5785 5.61388L15.477 6.30975C15.4822 6.31049 15.4829 6.31126 15.4837 6.31198C15.4837 6.31207 15.4838 6.31217 15.4839 6.31226C15.4868 6.3149 15.4935 6.32298 15.4979 6.33792C15.5023 6.3528 15.5022 6.367 15.4998 6.37739C15.4978 6.38566 15.4941 6.39353 15.4846 6.40266L11.9622 9.7593L11.7684 9.94398L11.8147 10.2077L12.6444 14.9372C12.6478 14.9565 12.645 14.9681 12.6422 14.9752C12.6388 14.9838 12.6332 14.991 12.6271 14.9958C12.625 14.9975 12.6232 14.9986 12.6219 14.9993C12.6212 14.999 12.6203 14.9985 12.6193 14.998L8.23003 12.7421L8.00146 12.6246L7.7729 12.7421L3.38368 14.998C3.38264 14.9985 3.38177 14.999 3.38104 14.9993C3.37976 14.9986 3.37798 14.9975 3.37579 14.9958C3.36973 14.991 3.36413 14.9838 3.36074 14.9752C3.35796 14.9681 3.35512 14.9565 3.35851 14.9372L4.18824 10.2077Z" fill="url(#paint0_linear_285_476)" stroke="#FF8C00"/>
</g>
<defs>
<linearGradient id="paint0_linear_285_476" x1="1.49194e-08" y1="16" x2="16" y2="16" gradientUnits="userSpaceOnUse">
<stop offset="0.500167" stop-color="#FF8C00"/>
<stop offset="0.500167" stop-color="white"/>
</linearGradient>
</defs>
</svg>
